<?xml version="1.0" encoding="UTF-8"?>
<svg version="1.1" xmlns="http://www.w3.org/2000/svg" width="512" height="512">
<path d="M0 0 C0.84304688 -0.0515625 1.68609375 -0.103125 2.5546875 -0.15625 C5.7074597 0.64871311 7.06869005 2.16556745 9.06309891 4.67700195 C10.9252845 7.87387285 10.78642414 11.21304606 10.70849609 14.796875 C10.71083252 15.60741333 10.71316895 16.41795166 10.71557617 17.25305176 C10.71718467 19.91936732 10.68321776 22.58393123 10.6484375 25.25 C10.64164307 27.11034522 10.63692389 28.97069907 10.63418579 30.83105469 C10.62079227 35.72151968 10.57652772 40.61125572 10.52661133 45.50146484 C10.49123101 49.48807973 10.47813392 53.47462081 10.46619225 57.46136475 C10.45137567 62.22428862 10.42618702 66.9871359 10.3984375 71.75 C10.39352673 72.65504272 10.38861595 73.56008545 10.38355637 74.49255371 C10.36720913 77.06282762 10.34380167 79.63293191 10.31787109 82.203125 C10.31361115 82.95758911 10.3093512 83.71205322 10.30496216 84.48937988 C10.26607344 87.68335514 10.09352288 90.67224912 9.51846313 93.8190918 C8.9499255 97.6928911 10.76061846 99.95350818 12.8125 103.0625 C22.2384601 118.35382062 24.75383757 137.27707837 21.04882812 154.83569336 C17.77422879 168.1461506 11.23722993 183.39466908 -0.47558594 191.24243164 C-3.13229231 193.30852571 -3.13229231 193.30852571 -3.48681641 196.4699707 C-3.48343262 197.61038818 -3.48004883 198.75080566 -3.4765625 199.92578125 C-3.49626099 201.82239502 -3.49626099 201.82239502 -3.51635742 203.75732422 C-3.51316498 204.42020447 -3.50997253 205.08308472 -3.50668335 205.76605225 C-3.49550923 209.18757835 -3.57496063 212.60685035 -3.65234375 216.02734375 C-3.68183105 217.33171387 -3.71131836 218.63608398 -3.74169922 219.97998047 C-4.52895735 240.76878575 -14.31148833 263.49588876 -28.83203125 278.38671875 C-30.9319364 280.47640261 -30.9319364 280.47640261 -32.7265625 282.9296875 C-35.34073804 286.05719205 -38.22834776 288.44504383 -41.4375 290.9375 C-42.04867676 291.41614502 -42.65985352 291.89479004 -43.28955078 292.38793945 C-48.5097882 296.3903024 -53.98386926 299.57779333 -59.875 302.5 C-59.25681396 302.62528076 -58.63862793 302.75056152 -58.00170898 302.87963867 C-23.81248109 309.87613496 5.2668461 322.63691409 31.125 346.5 C31.94226563 347.24636719 32.75953125 347.99273437 33.6015625 348.76171875 C51.75799892 366.11619243 65.41381967 389.40235868 73.1875 413.1875 C73.40390137 413.83477051 73.62030273 414.48204102 73.84326172 415.14892578 C75.09865241 419.27408986 75.30112976 422.34473953 74.125 426.5 C71.53962749 429.56162534 69.94057502 431.22814166 66.125 432.5 C64.38555825 432.59646773 62.64264923 432.63494082 60.90054321 432.64044189 C59.81821915 432.64615204 58.73589508 432.65186218 57.62077332 432.65774536 C56.4331691 432.65886322 55.24556488 432.65998108 54.02197266 432.66113281 C52.77135544 432.66609772 51.52073822 432.67106262 50.23222351 432.67617798 C46.8003411 432.68828792 43.36851963 432.69574497 39.9366231 432.70018864 C37.79227339 432.70312061 35.64792902 432.70722563 33.503582 432.71169281 C26.7936088 432.72536467 20.0836478 432.7350331 13.37366164 432.7388947 C5.62927552 432.74337619 -2.11493417 432.76092947 -9.85926664 432.7898953 C-15.84662054 432.81151196 -21.8339248 432.82159895 -27.82131732 432.82293582 C-31.39687103 432.82398378 -34.97225883 432.82988953 -38.54777145 432.84775543 C-42.5363001 432.86729773 -46.52460818 432.86294718 -50.51318359 432.85644531 C-51.69673935 432.8656601 -52.8802951 432.87487488 -54.09971619 432.8843689 C-55.73166176 432.87601517 -55.73166176 432.87601517 -57.39657593 432.86749268 C-58.33936087 432.86895924 -59.28214581 432.8704258 -60.25349998 432.8719368 C-64.18659408 432.31391184 -66.81835212 430.48377561 -69.6875 427.8125 C-71.4314679 424.41635199 -71.55581506 421.1895784 -70.875 417.5 C-69.08136089 414.6899654 -67.85619065 412.99059532 -64.875 411.5 C-63.35447633 411.40767364 -61.82993331 411.3780715 -60.30661011 411.37974548 C-59.34464722 411.37837082 -58.38268433 411.37699615 -57.39157104 411.37557983 C-55.80338058 411.38097275 -55.80338058 411.38097275 -54.18310547 411.38647461 C-52.51480682 411.38625557 -52.51480682 411.38625557 -50.81280518 411.3860321 C-47.1225797 411.3867309 -43.4324042 411.39452176 -39.7421875 411.40234375 C-37.18913806 411.40420805 -34.63608826 411.4056319 -32.08303833 411.40663147 C-26.04113084 411.41006447 -19.99924492 411.41795253 -13.95734608 411.42798096 C-7.07956124 411.43914955 -0.20177555 411.44465443 6.67601609 411.44967639 C20.8256874 411.46013534 34.97534271 411.47773014 49.125 411.5 C47.87787679 408.97510522 46.62739567 406.45196575 45.375 403.9296875 C45.02695312 403.22416748 44.67890625 402.51864746 44.3203125 401.79174805 C39.05193552 391.20011515 32.86267975 381.4740415 25.125 372.5 C24.31417969 371.54351562 23.50335938 370.58703125 22.66796875 369.6015625 C0.60608837 344.17242904 -30.23587108 330.26812192 -62.875 324.5 C-62.93107422 326.05847656 -62.93107422 326.05847656 -62.98828125 327.6484375 C-63.63846865 342.56155116 -66.58783378 355.34577881 -77.96484375 365.97265625 C-81.35534602 368.68367136 -84.94744103 370.67338399 -88.875 372.5 C-89.87080078 372.98146484 -89.87080078 372.98146484 -90.88671875 373.47265625 C-100.8522609 377.55378303 -113.31343833 376.64038967 -123.1953125 372.82421875 C-134.75265783 367.11293585 -142.53894154 357.48687235 -146.875 345.5 C-148.00824051 341.11517396 -148.19198814 336.69123398 -148.4375 332.1875 C-148.48068359 331.44693359 -148.52386719 330.70636719 -148.56835938 329.94335938 C-148.67370432 328.12908536 -148.77478316 326.3145645 -148.875 324.5 C-176.11081765 329.74780555 -200.61181269 339.1662611 -221.875 357.5 C-222.83148438 358.31082031 -223.78796875 359.12164062 -224.7734375 359.95703125 C-235.00455798 368.83337603 -242.93503868 379.16439365 -250.1875 390.5625 C-250.76395264 391.46198364 -250.76395264 391.46198364 -251.35205078 392.37963867 C-253.91273553 396.53318598 -255.99456593 400.83008467 -258.02416992 405.26733398 C-258.55950851 406.43530014 -259.09484711 407.6032663 -259.64640808 408.80662537 C-260.05184341 409.695439 -260.45727875 410.58425262 -260.875 411.5 C-260.28692975 411.49539104 -259.6988595 411.49078207 -259.09296894 411.48603344 C-244.77929256 411.37557804 -230.46565423 411.29285516 -216.15164661 411.24093914 C-209.22944133 411.21516504 -202.30752065 411.18003038 -195.38549805 411.12280273 C-188.70706449 411.0676153 -182.02898788 411.03858934 -175.350317 411.02561378 C-172.80055775 411.01636529 -170.25081494 410.9983054 -167.70118141 410.97134972 C-164.13351909 410.93512641 -160.56708379 410.93005213 -156.99926758 410.93237305 C-155.94190903 410.91439667 -154.88455048 410.89642029 -153.79515076 410.87789917 C-146.61771811 410.92852282 -146.61771811 410.92852282 -142.74223328 413.91047668 C-139.72275467 418.0979611 -139.68734547 420.2820518 -140.29296875 425.3046875 C-141.17025016 428.6136281 -142.99847619 429.81618118 -145.875 431.5 C-148.40953271 432.76726636 -150.17229403 432.63154593 -153.01043701 432.64044189 C-154.09835541 432.64615204 -155.1862738 432.65186218 -156.30715942 432.65774536 C-158.1056282 432.65942215 -158.1056282 432.65942215 -159.94042969 432.66113281 C-161.19904816 432.66609772 -162.45766663 432.67106262 -163.75442505 432.67617798 C-167.21327632 432.68931075 -170.67210818 432.69574896 -174.13098049 432.70018864 C-176.29225107 432.70311873 -178.45351633 432.70722348 -180.61478424 432.71169281 C-187.3776226 432.72537177 -194.14044881 432.73503574 -200.90330005 432.7388947 C-208.70824625 432.74337272 -216.51301708 432.76090689 -224.31790996 432.7898953 C-230.35111879 432.81152472 -236.38427834 432.8215997 -242.41752553 432.82293582 C-246.02051229 432.82398321 -249.6233343 432.82987639 -253.22628021 432.84775543 C-257.24829203 432.86732486 -261.269938 432.86294215 -265.29199219 432.85644531 C-266.48287445 432.8656601 -267.67375671 432.87487488 -268.90072632 432.8843689 C-279.10524395 432.83266708 -279.10524395 432.83266708 -283.875 429.5 C-286.04626373 426.78592034 -286.86781 424.83015044 -286.88671875 421.33203125 C-282.72311656 388.97632745 -255.43861726 355.08438825 -230.65429688 335.73266602 C-206.83470368 317.69504641 -180.91152811 308.23844429 -151.875 302.5 C-152.55304688 302.1596875 -153.23109375 301.819375 -153.9296875 301.46875 C-160.93376451 297.82119743 -166.86522484 293.59951662 -172.875 288.5 C-173.48988281 288.01917969 -174.10476562 287.53835938 -174.73828125 287.04296875 C-193.36693184 272.18287276 -205.03669541 246.82322562 -207.875 223.5 C-208.07201734 217.75320386 -208.08546109 211.99028625 -207.95410156 206.24121094 C-207.57870219 198.26654342 -207.57870219 198.26654342 -210.58642578 191.1862793 C-212.60281083 189.45711864 -214.67328565 187.98103471 -216.875 186.5 C-230.10942666 171.0762351 -235.40915244 151.77246223 -234.09814453 131.80322266 C-233.05787267 121.06588707 -229.47681346 111.80740808 -224.36328125 102.390625 C-222.33262232 98.44656303 -221.74064702 95.45274133 -221.91796875 91.04296875 C-222.47104706 71.60673836 -219.00311345 54.97749258 -205.5 40.125 C-191.40351063 25.27462368 -174.38232262 17.61800221 -153.92675686 17.04756832 C-149.33708175 16.98336964 -144.74915143 16.96792881 -140.15907097 16.98357964 C-136.38546889 16.99636263 -132.61258201 16.98478044 -128.83900452 16.96754456 C-121.50788313 16.93829668 -114.17697613 16.93521266 -106.84581757 16.93719482 C-96.87319773 16.93869159 -86.90080253 16.92171718 -76.92825508 16.88105965 C-73.23540881 16.87131299 -69.54292064 16.87988917 -65.8500824 16.88975525 C-41.52458936 16.86810189 -21.27809545 0.77610075 0 0 Z M-24.39257812 33.19140625 C-38.63826777 38.18775591 -53.35995707 37.78294795 -68.25540352 37.77439499 C-72.01135306 37.77341933 -75.76702452 37.78649261 -79.52293396 37.80337524 C-90.19195429 37.84934463 -100.86091968 37.8743353 -111.5300293 37.88085938 C-118.08206733 37.88503447 -124.63386432 37.91022237 -131.18580437 37.94618607 C-133.66748208 37.95593372 -136.14920067 37.95834378 -138.6308918 37.95301437 C-157.48791264 37.91439538 -173.19054667 38.81967609 -188 51.875 C-197.86605285 62.20321011 -201.29442873 75.39131937 -201.08984375 89.2265625 C-200.67748261 100.9519618 -195.03606682 110.89217472 -187.17578125 119.359375 C-180.77954541 125.31037201 -173.35213061 129.42070381 -164.875 131.5 C-164.20721527 131.67182297 -163.53943054 131.84364594 -162.85140991 132.02067566 C-158.62460708 132.70136466 -154.45714428 132.66440089 -150.18212891 132.67700195 C-148.724879 132.68685875 -148.724879 132.68685875 -147.2381897 132.69691467 C-144.02597975 132.71660633 -140.81381662 132.72830487 -137.6015625 132.73828125 C-136.49954876 132.74235678 -135.39753502 132.7464323 -134.26212692 132.75063133 C-128.4223118 132.77148052 -122.58252005 132.78578384 -116.74267578 132.79516602 C-110.74340015 132.80619149 -104.74449939 132.84055026 -98.74535561 132.88033772 C-94.10557419 132.90663296 -89.46588008 132.91486956 -84.82603073 132.91844749 C-82.6166978 132.92328489 -80.40736802 132.93481637 -78.19810867 132.95348549 C-58.42338413 133.11012245 -41.13841784 131.46807416 -26 117.1875 C-16.9427822 107.5242839 -10.73235396 94.97453157 -10.76147461 81.6081543 C-10.76155014 80.44732834 -10.76162567 79.28650238 -10.76170349 78.09049988 C-10.76686478 76.84762711 -10.77202606 75.60475433 -10.77734375 74.32421875 C-10.7787587 73.04392288 -10.78017365 71.76362701 -10.78163147 70.4445343 C-10.78543603 67.0530296 -10.79524857 63.66156823 -10.80633545 60.27008057 C-10.81659403 56.80440863 -10.82113859 53.33872964 -10.82617188 49.87304688 C-10.83719245 43.08201252 -10.8539243 36.29101019 -10.875 29.5 C-15.63159144 29.5 -19.96630331 31.55262603 -24.39257812 33.19140625 Z M-2.875 120.5 C-3.7561566 121.64641827 -4.60374601 122.8186592 -5.4375 124 C-9.82330223 129.94989556 -14.87659809 135.16782084 -20.875 139.5 C-20.29598044 143.63585402 -19.35457878 147.24133771 -17.80859375 151.1171875 C-17.40576172 152.13554687 -17.00292969 153.15390625 -16.58789062 154.203125 C-16.16701172 155.24984375 -15.74613281 156.2965625 -15.3125 157.375 C-14.67538086 158.97988281 -14.67538086 158.97988281 -14.02539062 160.6171875 C-12.98053151 163.24694526 -11.93026218 165.87440342 -10.875 168.5 C-9.885 168.5 -8.895 168.5 -7.875 168.5 C-0.27797788 154.03721991 4.15729457 141.68807346 -0.375 125.0625 C-0.85517079 123.53529011 -1.34711636 122.01138112 -1.875 120.5 C-2.205 120.5 -2.535 120.5 -2.875 120.5 Z M-210.875 123.5 C-214.78681283 135.47992678 -213.77497057 147.97764497 -208.875 159.5 C-207.04664589 162.9604946 -205.06911849 166.26001836 -202.875 169.5 C-199.86893972 167.99696986 -199.6617921 165.81879441 -198.4921875 162.71484375 C-198.04746094 161.54501953 -197.60273438 160.37519531 -197.14453125 159.16992188 C-196.68433594 157.93822266 -196.22414063 156.70652344 -195.75 155.4375 C-195.2779885 154.18920914 -194.80534016 152.94115888 -194.33203125 151.69335938 C-193.17338461 148.63122183 -192.02136133 145.56675342 -190.875 142.5 C-191.54466797 141.97905762 -192.21433594 141.45811523 -192.90429688 140.92138672 C-201.70470451 133.99513997 -201.70470451 133.99513997 -205.375 129.625 C-206.0040625 128.88507813 -206.633125 128.14515625 -207.28125 127.3828125 C-207.8071875 126.76148437 -208.333125 126.14015625 -208.875 125.5 C-209.535 124.84 -210.195 124.18 -210.875 123.5 Z M-48.01074219 150.91699219 C-58.8055855 153.29984338 -69.70640413 152.89318508 -80.703125 152.828125 C-82.98703893 152.82505966 -85.27095474 152.82318944 -87.55487061 152.82244873 C-92.31530034 152.81787344 -97.0755583 152.80355317 -101.8359375 152.78125 C-107.91364606 152.75290571 -113.9912204 152.74202819 -120.0689888 152.7375679 C-125.90538448 152.73239565 -131.74174716 152.71787736 -137.578125 152.703125 C-138.67766762 152.70124428 -139.77721024 152.69936356 -140.91007233 152.69742584 C-144.0458872 152.69049236 -147.18160098 152.67682907 -150.31738281 152.66113281 C-151.22674591 152.66001495 -152.13610901 152.65889709 -153.07302856 152.65774536 C-159.38314695 152.61625886 -165.60000708 152.15702846 -171.875 151.5 C-173.06086749 154.11231895 -174.24543501 156.7251977 -175.42724609 159.33935547 C-176.340963 161.33412427 -177.27142657 163.32138438 -178.22509766 165.29736328 C-184.79782322 179.02624972 -187.8426636 191.02919951 -187.75 206.125 C-187.74980865 206.82480988 -187.74961731 207.52461975 -187.74942017 208.24563599 C-187.6609543 221.53602184 -185.48429892 235.04408462 -179.125 246.875 C-178.78428467 247.53218018 -178.44356934 248.18936035 -178.0925293 248.86645508 C-173.89404182 256.70626196 -168.39226824 263.45960505 -161.875 269.5 C-161.276875 270.09167969 -160.67875 270.68335938 -160.0625 271.29296875 C-144.96724227 285.63901332 -124.35589264 293.00439846 -103.60473633 292.47680664 C-85.08798024 291.60697592 -66.69350757 285.13117694 -52.875 272.5 C-51.55435547 271.31664062 -51.55435547 271.31664062 -50.20703125 270.109375 C-33.44093031 254.29142597 -24.82589241 233.81189923 -23.84912109 210.78662109 C-23.81002152 209.35790036 -23.77712906 207.92899815 -23.75 206.5 C-23.72598114 205.39461884 -23.72598114 205.39461884 -23.70147705 204.26690674 C-23.50648525 185.11523126 -30.82631258 167.16776487 -39.875 150.5 C-42.85877613 149.00811193 -44.79531318 150.11707754 -48.01074219 150.91699219 Z M-126.875 311.5 C-126.991965 315.83310328 -127.0625089 320.1657958 -127.125 324.5 C-127.15851563 325.72074219 -127.19203125 326.94148438 -127.2265625 328.19921875 C-127.31642926 336.51189394 -126.71225145 342.05325224 -121.12890625 348.5234375 C-115.31178468 353.17176097 -110.9811543 354.99924535 -103.43359375 354.80859375 C-96.67451723 353.99337689 -92.34634707 350.48924745 -88.1015625 345.37890625 C-85.24986506 341.01054169 -84.63064071 337.27990482 -84.6796875 332.10546875 C-84.68935547 330.30239258 -84.68935547 330.30239258 -84.69921875 328.46289062 C-84.71597656 327.21701172 -84.73273438 325.97113281 -84.75 324.6875 C-84.75902344 323.42228516 -84.76804687 322.15707031 -84.77734375 320.85351562 C-84.80087606 317.73548436 -84.83375455 314.61783903 -84.875 311.5 C-85.82415283 311.55329468 -85.82415283 311.55329468 -86.79248047 311.60766602 C-100.2487922 312.33657999 -113.43826376 312.60276244 -126.875 311.5 Z " fill="#000000" transform="translate(361.875,-0.5)"/>
<path d="M0 0 C8.38207564 4.59094601 13.63845528 10.46376259 17 19.4375 C19.10315907 28.26540971 18.26953226 36.69290126 13.74609375 44.640625 C8.99397562 51.4256656 3.05800837 56.28675139 -5 58.4375 C-14.73031073 59.40442418 -22.68616417 59.10602443 -31 53.4375 C-31.928125 52.839375 -32.85625 52.24125 -33.8125 51.625 C-40.19726517 45.24023483 -43.27300462 37.70389161 -43.375 28.6875 C-43.24676285 20.58291192 -41.27190443 14.91217736 -36.875 8.1875 C-27.20912061 -1.05812377 -12.82196094 -5.26375239 0 0 Z M-20 22.0625 C-22.19828829 25.77211149 -22.87512282 27.23691047 -22 31.4375 C-19.4349661 35.77285741 -19.4349661 35.77285741 -15.0625 37.98828125 C-11.08619448 38.25186211 -9.34969983 37.69047435 -6.0625 35.3125 C-3.73877933 32.07337421 -2.91866007 30.42315637 -3 26.4375 C-5.24721141 22.1954186 -5.24721141 22.1954186 -9 19.4375 C-15.09290544 18.67717334 -15.09290544 18.67717334 -20 22.0625 Z " fill="#000000" transform="translate(371,453.5625)"/>
<path d="M0 0 C1.46172397 0.87752325 2.903865 1.78956704 4.3125 2.75 C5.240625 3.348125 6.16875 3.94625 7.125 4.5625 C13.50976517 10.94726517 16.58550462 18.48360839 16.6875 27.5 C16.55926285 35.60458808 14.58440443 41.27532264 10.1875 48 C1.80275293 56.02019285 -6.39700568 58.23786685 -17.6640625 58.0234375 C-25.49855449 57.65727198 -31.22618354 54.06222722 -36.89453125 48.8125 C-42.52424415 42.33649039 -45.05886962 34.5072268 -44.8984375 25.98828125 C-44.05482485 17.0366137 -40.3874554 9.97151683 -33.73046875 3.9921875 C-24.463987 -3.34303897 -10.82574714 -5.29077868 0 0 Z M-22.6875 23.75 C-23.93427006 26.64706707 -23.93427006 26.64706707 -23.6875 29.75 C-21.44028859 33.9920814 -21.44028859 33.9920814 -17.6875 36.75 C-14.67584116 37.09560019 -12.593402 37.33340289 -9.6875 36.75 C-6.42817575 33.89809128 -4.94804504 32.00061619 -4.0625 27.75 C-4.94804504 23.49938381 -6.42817575 21.60190872 -9.6875 18.75 C-15.50908978 17.09507226 -19.17887366 18.85918752 -22.6875 23.75 Z " fill="#000000" transform="translate(167.6875,454.25)"/>
<path d="M0 0 C3.58598889 2.54054385 6.15992797 5.04327701 8.4921875 8.765625 C8.90210938 9.38695312 9.31203125 10.00828125 9.734375 10.6484375 C13.58244889 17.62804738 13.74273274 26.02607545 12.4921875 33.765625 C10.09120579 41.34186763 6.27912589 47.51322792 -0.5078125 51.765625 C-1.12914062 52.17554688 -1.75046875 52.58546875 -2.390625 53.0078125 C-9.37023488 56.85588639 -17.76826295 57.01617024 -25.5078125 55.765625 C-33.08405513 53.36464329 -39.25541542 49.55256339 -43.5078125 42.765625 C-43.91773438 42.14429688 -44.32765625 41.52296875 -44.75 40.8828125 C-48.59807389 33.90320262 -48.75835774 25.50517455 -47.5078125 17.765625 C-45.10683079 10.18938237 -41.29475089 4.01802208 -34.5078125 -0.234375 C-33.88648438 -0.64429688 -33.26515625 -1.05421875 -32.625 -1.4765625 C-22.455808 -7.08315125 -9.72162164 -5.63801363 0 0 Z M-26.5078125 21.765625 C-27.20628375 24.6053114 -27.20628375 26.9259386 -26.5078125 29.765625 C-24.51859364 32.7494533 -23.12278682 34.36839341 -19.5703125 35.2421875 C-15.64717758 35.52453433 -13.83668879 34.98487586 -10.5078125 32.765625 C-8.28856164 29.43674871 -7.74890317 27.62625992 -8.03125 23.703125 C-8.90504409 20.15065068 -10.5239842 18.75484386 -13.5078125 16.765625 C-19.32444453 15.33492115 -23.11596156 16.67784859 -26.5078125 21.765625 Z " fill="#000000" transform="translate(273.5078125,456.234375)"/>
<path d="M0 0 C5.090394 2.93286706 9.00127877 6.72331532 13.11328125 10.8828125 C13.76830124 11.53829071 14.42332123 12.19376892 15.09819031 12.86911011 C16.47286929 14.24679535 17.84513212 15.6268953 19.21508789 17.00927734 C21.31795905 19.1305067 23.42882488 21.24352307 25.54101562 23.35546875 C26.87807879 24.69744395 28.21468376 26.03987585 29.55078125 27.3828125 C30.18301102 28.01615509 30.81524078 28.64949768 31.46662903 29.30203247 C32.04780991 29.8895932 32.62899078 30.47715393 33.2277832 31.08251953 C33.99672661 31.85718063 33.99672661 31.85718063 34.78120422 32.64749146 C37.45773035 35.61765637 37.54643323 38.63188625 37.42651367 42.48803711 C36.93937878 45.3570302 36.2891296 46.32223536 34.33203125 48.43359375 C33.69668457 49.12066406 33.06133789 49.80773437 32.40673828 50.515625 C27.66141326 55.41402503 22.87696632 60.2700827 18.04614258 65.08422852 C16.17085437 66.95409753 14.30104535 68.82932899 12.43164062 70.70507812 C11.23990435 71.89615461 10.04785845 73.0869214 8.85546875 74.27734375 C8.29715866 74.83767807 7.73884857 75.39801239 7.16362 75.97532654 C2.20777628 80.90100194 2.20777628 80.90100194 -2.8125 81.3125 C-6.13227327 81.28232024 -6.99044521 81.0060988 -9.9375 79.125 C-12.61553405 76.3658134 -13.23805184 74.63395608 -13.5 70.875 C-13.40856487 66.93877899 -12.70352168 65.13113414 -10.02734375 62.2578125 C-9.39231934 61.57090332 -8.75729492 60.88399414 -8.10302734 60.17626953 C-4.46273657 56.40919825 -0.7874431 52.68344844 2.9375 49 C3.71673828 48.22527344 4.49597656 47.45054687 5.29882812 46.65234375 C7.1969242 44.76589243 9.09733149 42.88183755 11 41 C6.35382024 35.40531783 1.37171774 30.28332528 -3.8125 25.1875 C-5.34212464 23.68330553 -6.86958455 22.17690551 -8.39453125 20.66796875 C-9.06331299 20.01078857 -9.73209473 19.3536084 -10.42114258 18.67651367 C-13.45357854 15.45651402 -13.38680493 12.52021591 -13.359375 8.26171875 C-12.78943134 4.67479071 -10.79773951 3.13161106 -8 1 C-5.13391871 -0.43304064 -3.18699217 -0.30644155 0 0 Z " fill="#000000" transform="translate(475,165)"/>
<path d="M0 0 C5.57894737 3.15789474 5.57894737 3.15789474 7 6 C7.70797276 9.87775988 7.97444532 13.5299689 5.73413086 16.90966797 C5.17089111 17.51439941 4.60765137 18.11913086 4.02734375 18.7421875 C3.39231934 19.42909668 2.75729492 20.11600586 2.10302734 20.82373047 C-1.53726343 24.59080175 -5.2125569 28.31655156 -8.9375 32 C-9.71673828 32.77472656 -10.49597656 33.54945313 -11.29882812 34.34765625 C-13.1969242 36.23410757 -15.09733149 38.11816245 -17 40 C-12.35382024 45.59468217 -7.37171774 50.71667472 -2.1875 55.8125 C-0.65787536 57.31669447 0.86958455 58.82309449 2.39453125 60.33203125 C3.06331299 60.98921143 3.73209473 61.6463916 4.42114258 62.32348633 C7.47021474 65.56115117 7.32736545 68.46621088 7.29296875 72.73828125 C6.86344199 76.0542278 5.39075646 77.74987627 3 80 C-0.31151359 81.6557568 -3.44533765 81.73265252 -7 81 C-14.47927469 76.14837383 -20.80094616 68.35119247 -27.08422852 62.04614258 C-28.95409753 60.17085437 -30.82932899 58.30104535 -32.70507812 56.43164062 C-33.89615461 55.23990435 -35.0869214 54.04785845 -36.27734375 52.85546875 C-36.83767807 52.29715866 -37.39801239 51.73884857 -37.97532654 51.16362 C-41.40369232 47.71425648 -43.16134676 45.73467405 -43.5 40.875 C-43.38678544 37.11285287 -42.85285329 35.28798829 -40.29296875 32.53125 C-39.6572998 31.84401855 -39.02163086 31.15678711 -38.36669922 30.44873047 C-37.58568848 29.64064941 -36.80467773 28.83256836 -36 28 C-35.53233215 27.51597717 -35.06466431 27.03195435 -34.58282471 26.53326416 C-31.27878773 23.12546991 -27.93977194 19.75400218 -24.58325195 16.39794922 C-22.80064873 14.61313402 -21.02623305 12.82042884 -19.25195312 11.02734375 C-18.11246822 9.88492866 -16.97251115 8.74298428 -15.83203125 7.6015625 C-15.30591751 7.06826324 -14.77980377 6.53496399 -14.23774719 5.98550415 C-9.67758075 1.45353046 -6.55359553 -0.78643146 0 0 Z " fill="#000000" transform="translate(43,165)"/>
<path d="M0 0 C1.55172583 0.81896641 3.07235901 1.69869614 4.5625 2.625 C8.10132388 4.81446041 8.10132388 4.81446041 12.25 4.5 C14.99423569 3.05579851 14.99423569 3.05579851 17.4375 1.375 C20.92727262 -0.49756092 23.08791746 -0.54906422 27 0 C29.96922861 1.79349379 32.42452071 3.84904142 34 7 C34.38523861 12.10441153 33.98012936 14.85144987 31 19 C23.8634898 24.7066318 16.14700525 27.39101664 7.0625 26.9375 C-0.90737109 25.882299 -7.85108794 22.14547568 -13 16 C-14.57455739 12.85088521 -14.34799118 10.47991184 -14 7 C-10.40392045 0.96180672 -6.90909875 -0.6580094 0 0 Z " fill="#000000" transform="translate(246,235)"/>
<path d="M0 0 C2.75569447 2.18159145 4.43588747 3.87177494 6 7 C6.12272016 11.5406461 5.86358012 14.98402339 2.875 18.5 C-0.58462207 20.30502021 -3.09373338 20.93024524 -7 21 C-10.64732163 19.42502021 -13.17551854 17.55293758 -15 14 C-15.53198011 9.212179 -15.72509014 7.13597455 -13.125 3.0625 C-9.24699241 -0.70144855 -5.21240222 -0.82822281 0 0 Z " fill="#000000" transform="translate(261,411)"/>
</svg>
