<svg xmlns="http://www.w3.org/2000/svg" width="48" height="48"><path d="M41.455 0H6.546A6.555 6.555 0 0 0 0 6.547v34.908A6.553 6.553 0 0 0 6.546 48h34.909A6.553 6.553 0 0 0 48 41.455V6.547A6.554 6.554 0 0 0 41.455 0zm0 1.455a5.1 5.1 0 0 1 5.091 5.092v7.029H33.407V1.455zm-40 5.091a5.1 5.1 0 0 1 5.091-5.092h8.277a5.4 5.4 0 0 0 5.347 4.674 4.45 4.45 0 0 1 4.444 4.445 6.133 6.133 0 0 1-.905 3.2 4.571 4.571 0 0 0-8.211 3.49A8.937 8.937 0 0 0 9.5 25.684a8.784 8.784 0 0 1-8.048 8.74zm21.725 9.967a3.151 3.151 0 1 1-3.151-3.152 3.153 3.153 0 0 1 3.151 3.152zM14.5 46.546H6.546A5.071 5.071 0 0 1 2.657 44.7L14.5 40.186v6.36zm17.449 0H15.958v-6.912l16-6.1zm0-14.564L1.863 43.449a5.045 5.045 0 0 1-.408-1.994v-5.576a10.234 10.234 0 0 0 9.5-10.193 7.462 7.462 0 0 1 5.019-7.029 4.612 4.612 0 0 0 3.326 2.4v8.426a.728.728 0 1 0 1.455 0v-8.438a4.516 4.516 0 0 0 3.687-5.775 7.587 7.587 0 0 0 1.627-4.695 5.906 5.906 0 0 0-5.9-5.9A3.948 3.948 0 0 1 16.3 1.456h15.655v30.526zm14.593 9.473a5.1 5.1 0 0 1-5.091 5.092h-8.044V32.984l13.139-5.006zM33.407 31.427v-16.4h13.139v11.395z" fill="#1a171b"/></svg>