<svg width="72" height="72" viewBox="0 0 72 72" fill="none" xmlns="http://www.w3.org/2000/svg">
<mask id="mask0_0_6089" style="mask-type:alpha" maskUnits="userSpaceOnUse" x="0" y="0" width="72" height="72">
<rect width="72" height="72" fill="#D9D9D9"/>
</mask>
<g mask="url(#mask0_0_6089)">
<rect x="17.0628" y="3.85499" width="37.8839" height="64.2839" rx="3.87097" fill="#1E1E1E" stroke="white" stroke-width="0.516129"/>
<rect x="20.5" y="8.5" width="31" height="55" rx="2.5" fill="#DF4DBF" fill-opacity="0.2" stroke="#DF4DBF" stroke-dasharray="2 2"/>
<path d="M48.812 38.6745C48.812 37.8367 48.1363 37.161 47.2985 37.161C46.7579 37.161 46.2985 37.4583 46.0282 37.8637V37.8367C46.0282 36.9989 45.3525 36.3232 44.5147 36.3232C43.9741 36.3232 43.5147 36.5935 43.2444 37.0259V36.9989C43.2444 36.161 42.5687 35.4853 41.7309 35.4853C41.1904 35.4853 40.7309 35.7556 40.4606 36.1881V31.134C40.4606 30.7286 40.2985 30.3502 40.0282 30.0529C39.7309 29.7826 39.3525 29.6205 38.9471 29.6205C38.1093 29.6205 37.4336 30.2962 37.4336 31.134V40.4583C37.4336 40.5394 37.3795 40.6205 37.2985 40.6475C37.2174 40.6745 37.1363 40.6745 37.0822 40.5935L35.5417 39.0799C35.0282 38.5664 34.2174 38.4853 33.5958 38.8908C33.2444 39.134 33.0012 39.5124 32.9471 39.9448C32.8931 40.3772 33.0012 40.8097 33.2714 41.134L37.0822 45.7286C38.1633 47.0259 39.7579 47.7826 41.4336 47.7826H43.812C45.1363 47.7826 46.3795 47.2691 47.3255 46.3232C48.2714 45.3772 48.7849 44.134 48.7849 42.8097L48.812 38.6745Z" fill="white"/>
<path d="M34.9739 34.5935C35.1901 34.3773 35.1901 34.026 34.9739 33.8098L33.2441 32.08C33.0279 31.8638 32.6766 31.8638 32.4604 32.08C32.2441 32.2962 32.2441 32.6476 32.4604 32.8638L33.2441 33.6476H29.7306V30.1341L30.5144 30.9179C30.6225 31.026 30.7577 31.08 30.9198 31.08C31.082 31.08 31.2171 31.026 31.3252 30.9179C31.5414 30.7016 31.5414 30.3503 31.3252 30.1341L29.5955 28.4043C29.3793 28.1881 29.0279 28.1881 28.8117 28.4043L27.082 30.1341C26.8658 30.3503 26.8658 30.7016 27.082 30.9179C27.2982 31.1341 27.6495 31.1341 27.8658 30.9179L28.6495 30.1341V33.6476H25.136L25.9198 32.8638C26.136 32.6476 26.136 32.2962 25.9198 32.08C25.7036 31.8638 25.3522 31.8638 25.136 32.08L23.4063 33.8098C23.1901 34.026 23.1901 34.3773 23.4063 34.5935L25.136 36.3233C25.2441 36.4314 25.3793 36.4854 25.5414 36.4854C25.6766 36.4854 25.8387 36.4314 25.9468 36.3233C26.1631 36.1071 26.1631 35.7557 25.9468 35.5395L25.055 34.7557H28.5685V38.2692L27.7847 37.4854C27.5685 37.2692 27.2171 37.2692 27.0009 37.4854C26.7847 37.7016 26.7847 38.053 27.0009 38.2692L28.7306 39.9989C28.8387 40.1071 28.9739 40.1611 29.136 40.1611C29.2982 40.1611 29.4333 40.1071 29.5414 39.9989L31.2712 38.2692C31.4874 38.053 31.4874 37.7016 31.2712 37.4854C31.055 37.2692 30.7036 37.2692 30.4874 37.4854L29.7036 38.2692V34.7557H33.2171L32.4604 35.5395C32.2441 35.7557 32.2441 36.1071 32.4604 36.3233C32.5685 36.4314 32.7036 36.4854 32.8658 36.4854C33.0009 36.4854 33.1631 36.4314 33.2712 36.3233L34.9739 34.5935Z" fill="white"/>
</g>
</svg>
