<svg width="74" height="44" viewBox="0 0 74 44" fill="none" xmlns="http://www.w3.org/2000/svg">
<rect x="0.696372" y="1.04598" width="72.4186" height="42.5891" rx="5.46512" fill="black" fill-opacity="0.5"/>
<rect x="0.696372" y="1.04598" width="72.4186" height="42.5891" rx="5.46512" fill="url(#paint0_radial_622_230)" fill-opacity="0.2" style="mix-blend-mode:hard-light"/>
<path d="M22.55 25.4543C22.55 26.0664 22.3994 26.6007 22.0982 27.0574C21.797 27.514 21.3598 27.8686 20.7866 28.1212C20.2231 28.3641 19.5333 28.4856 18.7171 28.4856C18.3577 28.4856 18.003 28.4613 17.6533 28.4127C17.3132 28.3641 16.9829 28.2961 16.6623 28.2087C16.3514 28.1115 16.055 27.9949 15.7733 27.8589V25.804C16.2688 26.0178 16.7788 26.2169 17.3035 26.4015C17.8379 26.5764 18.3674 26.6639 18.892 26.6639C19.2515 26.6639 19.5381 26.6153 19.7519 26.5181C19.9753 26.421 20.1356 26.2898 20.2328 26.1246C20.3397 25.9595 20.3931 25.77 20.3931 25.5563C20.3931 25.294 20.3008 25.0705 20.1162 24.8859C19.9413 24.7013 19.7033 24.5313 19.4021 24.3758C19.1009 24.2106 18.756 24.0358 18.3674 23.8512C18.1245 23.7346 17.8622 23.5986 17.5804 23.4431C17.2986 23.2779 17.0266 23.0788 16.7643 22.8456C16.5117 22.6027 16.3028 22.3112 16.1376 21.9712C15.9724 21.6311 15.8899 21.223 15.8899 20.747C15.8899 20.1252 16.0307 19.5957 16.3125 19.1584C16.604 18.7115 17.012 18.3715 17.5367 18.1383C18.071 17.9051 18.6977 17.7885 19.4167 17.7885C19.9608 17.7885 20.4757 17.8517 20.9615 17.978C21.457 18.1043 21.9719 18.284 22.5063 18.5172L21.7922 20.2369C21.3161 20.0426 20.8886 19.892 20.5097 19.7851C20.1308 19.6782 19.7422 19.6248 19.3438 19.6248C19.0718 19.6248 18.8386 19.6685 18.6443 19.756C18.45 19.8434 18.2994 19.9649 18.1925 20.1203C18.0953 20.2758 18.0468 20.4604 18.0468 20.6741C18.0468 20.917 18.1196 21.1259 18.2654 21.3008C18.4111 21.4659 18.6297 21.6263 18.9212 21.7817C19.2126 21.9372 19.577 22.1218 20.0142 22.3355C20.5486 22.5881 21.0003 22.8504 21.3695 23.1225C21.7485 23.3945 22.0399 23.7151 22.244 24.0843C22.448 24.4535 22.55 24.9102 22.55 25.4543ZM33.5499 28.3398H31.3493V23.8512H27.225V28.3398H25.0243V17.9343H27.225V22.0149H31.3493V17.9343H33.5499V28.3398ZM40.6422 28.3398H35.9057V27.0865L37.1736 26.5036V19.7705L35.9057 19.1876V17.9343H40.6422V19.1876L39.3743 19.7705V26.5036L40.6422 27.0865V28.3398ZM45.1698 28.3398H42.9983V17.9343H48.9589V19.7414H45.1698V22.4229H48.6966V24.2301H45.1698V28.3398ZM55.5874 28.3398H53.3868V19.7705H50.5595V17.9343H58.4147V19.7705H55.5874V28.3398Z" fill="white"/>
<rect x="0.696372" y="1.04598" width="72.4186" height="42.5891" rx="5.46512" stroke="url(#paint1_radial_622_230)" stroke-width="0.728682"/>
<defs>
<radialGradient id="paint0_radial_622_230" cx="0" cy="0" r="1" gradientUnits="userSpaceOnUse" gradientTransform="translate(10.4084 3.77577) rotate(34.4696) scale(71.0706 67.0483)">
<stop stop-color="white"/>
<stop offset="1" stop-color="white" stop-opacity="0"/>
</radialGradient>
<radialGradient id="paint1_radial_622_230" cx="0" cy="0" r="1" gradientUnits="userSpaceOnUse" gradientTransform="translate(0.332028 2.67073) rotate(29.4668) scale(84.0154 72.0445)">
<stop stop-color="white" stop-opacity="0.6"/>
<stop offset="0.5" stop-color="white" stop-opacity="0.3"/>
<stop offset="1" stop-color="white" stop-opacity="0.6"/>
</radialGradient>
</defs>
</svg>
