<svg width="72" height="72" viewBox="0 0 72 72" fill="none" xmlns="http://www.w3.org/2000/svg">
<mask id="mask0_0_6102" style="mask-type:alpha" maskUnits="userSpaceOnUse" x="0" y="0" width="72" height="72">
<rect width="72" height="72" fill="#D9D9D9"/>
</mask>
<g mask="url(#mask0_0_6102)">
<rect x="17.2581" y="3.85499" width="37.8839" height="64.2839" rx="3.87097" fill="#1E1E1E" stroke="white" stroke-width="0.516129"/>
<path d="M38.5554 27.403L38.4765 31.4728L38.9089 31.4812L38.9624 28.7229C38.9741 28.1178 39.4749 27.6366 40.0795 27.6483C40.6845 27.66 41.1658 28.1608 41.154 28.7654L41.0786 32.6562L41.5185 32.6648L41.5638 30.3316C41.5755 29.7267 42.0763 29.2453 42.6808 29.257C43.2857 29.2687 43.7671 29.7695 43.7491 30.7021L43.619 37.4125C43.5624 40.2647 40.6664 43.052 37.1563 42.985C33.6473 42.9159 30.8617 40.0196 30.9273 36.5096L30.92 36.5095L31.0632 29.502C31.0813 28.5684 31.0905 28.4063 31.6958 28.418C32.7559 28.4386 33.25 29.4167 33.2383 30.0215L33.1805 33.0035L33.6204 33.0121L33.8073 23.3721C33.819 22.7671 34.3198 22.2858 34.9244 22.2976C35.5297 22.3093 36.0107 22.8101 35.999 23.4146L35.8437 31.4213L36.2836 31.4298L36.3626 27.36C36.374 26.7554 36.8748 26.2737 37.4802 26.2856C38.0857 26.2976 38.5671 26.7984 38.5554 27.403Z" fill="white"/>
<path d="M32.4016 23.3595C32.3897 24.1244 32.7837 24.7933 33.3506 25.3689L33.3892 23.3787C33.3908 22.5447 34.0938 21.8698 34.9341 21.8852C35.7743 21.9022 36.4579 22.6042 36.4274 23.4376L36.3888 25.4279C36.9774 24.8748 37.3902 24.2211 37.4075 23.4566C37.4197 22.1482 36.3562 20.9248 34.9532 20.8976C33.5502 20.8704 32.4404 22.0516 32.4016 23.3595Z" fill="white"/>
<circle cx="44.8387" cy="56.8387" r="2.83871" fill="white" fill-opacity="0.3"/>
<circle cx="28" cy="56" r="6.75" fill="#DF4DBF" fill-opacity="0.3" stroke="#DF4DBF" stroke-width="0.5"/>
<circle cx="27.8387" cy="55.8387" r="2.83871" fill="#DF4DBF"/>
</g>
</svg>
