<svg width="66" height="66" viewBox="0 0 66 66" fill="none" xmlns="http://www.w3.org/2000/svg">
<mask id="mask0_102_1543" style="mask-type:alpha" maskUnits="userSpaceOnUse" x="0" y="0" width="66" height="66">
<rect width="66" height="66" fill="#D9D9D9"/>
</mask>
<g mask="url(#mask0_102_1543)">
<rect x="12.2863" y="4.03613" width="40.25" height="57.9286" rx="20.125" fill="#1E1E1E" stroke="white"/>
<path d="M12.2863 24.7504C12.2863 13.4774 21.2914 4.30758 32.5005 4.04205V31.3218H12.2863V24.7504Z" fill="#1E1E1E" stroke="white"/>
<path d="M52.5363 24.7504C52.5363 13.4774 43.5312 4.30758 32.322 4.04205V31.3218H52.5363V24.7504Z" fill="#1E1E1E" stroke="white"/>
<g filter="url(#filter0_d_102_1543)">
<rect x="28.8807" y="10.0459" width="7.07143" height="14.1429" rx="3.53571" fill="#C1BCC4"/>
<rect x="28.8807" y="10.0459" width="7.07143" height="14.1429" rx="3.53571" fill="url(#paint0_radial_102_1543)"/>
<rect x="28.8807" y="10.0459" width="7.07143" height="14.1429" rx="3.53571" fill="#DF4DBF" style="mix-blend-mode:color"/>
<rect x="29.3807" y="10.5459" width="6.07143" height="13.1429" rx="3.03571" stroke="white"/>
</g>
</g>
<path d="M62 0L59.1132 5L64.8868 5L62 0ZM62 24.4122L64.8868 19.4122L59.1132 19.4122L62 24.4122ZM61.5 4.5L61.5 19.9122L62.5 19.9122L62.5 4.5L61.5 4.5Z" fill="#DF4DBF"/>
<defs>
<filter id="filter0_d_102_1543" x="20.8807" y="2.0459" width="23.0714" height="30.1426" filterUnits="userSpaceOnUse" color-interpolation-filters="sRGB">
<feFlood flood-opacity="0" result="BackgroundImageFix"/>
<feColorMatrix in="SourceAlpha" type="matrix" values="0 0 0 0 0 0 0 0 0 0 0 0 0 0 0 0 0 0 127 0" result="hardAlpha"/>
<feOffset/>
<feGaussianBlur stdDeviation="4"/>
<feComposite in2="hardAlpha" operator="out"/>
<feColorMatrix type="matrix" values="0 0 0 0 0.875 0 0 0 0 0.302604 0 0 0 0 0.749073 0 0 0 1 0"/>
<feBlend mode="normal" in2="BackgroundImageFix" result="effect1_dropShadow_102_1543"/>
<feBlend mode="normal" in="SourceGraphic" in2="effect1_dropShadow_102_1543" result="shape"/>
</filter>
<radialGradient id="paint0_radial_102_1543" cx="0" cy="0" r="1" gradientUnits="userSpaceOnUse" gradientTransform="translate(30.0699 10.0459) rotate(53.7996) scale(52.667 305.869)">
<stop stop-color="#DF4DBF"/>
<stop offset="1" stop-color="#572EFF"/>
</radialGradient>
</defs>
</svg>
