<svg width="42" height="53" viewBox="0 0 42 53" fill="none" xmlns="http://www.w3.org/2000/svg">
<mask id="mask0_0_2312" style="mask-type:alpha" maskUnits="userSpaceOnUse" x="3" y="8" width="37" height="37">
<rect x="3.65186" y="8.99951" width="35.6087" height="35.6087" fill="#D9D9D9"/>
</mask>
<g mask="url(#mask0_0_2312)">
<rect x="10.3272" y="11.2232" width="21.6196" height="31.1576" rx="10.8098" fill="#1E1E1E" stroke="white" stroke-width="0.63587"/>
<path d="M10.3272 22.3509C10.3272 16.3116 15.1384 11.396 21.137 11.2277V25.8482H10.3272V22.3509Z" fill="url(#paint0_radial_0_2312)"/>
<path d="M10.3272 22.3509C10.3272 16.3116 15.1384 11.396 21.137 11.2277V25.8482H10.3272V22.3509Z" fill="#8A2EFF" style="mix-blend-mode:color"/>
<path d="M10.3272 22.3509C10.3272 16.3116 15.1384 11.396 21.137 11.2277V25.8482H10.3272V22.3509Z" stroke="white" stroke-width="0.63587"/>
<path d="M31.9467 22.3509C31.9467 16.3116 27.1356 11.396 21.1369 11.2277V25.8482H31.9467V22.3509Z" fill="#1E1E1E" stroke="white" stroke-width="0.63587"/>
<rect x="19.8658" y="15.0377" width="3.17935" height="6.99457" rx="1.58967" fill="#1E1E1E" stroke="white" stroke-width="0.63587"/>
</g>
<path d="M41.322 28.8008C41.5003 28.6226 41.5003 28.3335 41.322 28.1552L38.4167 25.2499C38.2384 25.0716 37.9494 25.0716 37.7711 25.2499C37.5928 25.4282 37.5928 25.7173 37.7711 25.8956L40.3536 28.478L37.7711 31.0605C37.5928 31.2388 37.5928 31.5278 37.7711 31.7061C37.9494 31.8844 38.2384 31.8844 38.4167 31.7061L41.322 28.8008ZM33.6948 28.9345H40.9992V28.0215H33.6948V28.9345Z" fill="white"/>
<path d="M0.677042 28.8008C0.498759 28.6226 0.498759 28.3335 0.677042 28.1552L3.58233 25.2499C3.76061 25.0716 4.04966 25.0716 4.22795 25.2499C4.40623 25.4282 4.40623 25.7173 4.22795 25.8956L1.64547 28.478L4.22795 31.0605C4.40623 31.2388 4.40623 31.5278 4.22795 31.7061C4.04966 31.8844 3.76061 31.8844 3.58233 31.7061L0.677042 28.8008ZM8.3042 28.9345H0.999851V28.0215H8.3042V28.9345Z" fill="white"/>
<path d="M21.3223 0.677042C21.144 0.498759 20.855 0.498759 20.6767 0.677042L17.7714 3.58233C17.5931 3.76061 17.5931 4.04966 17.7714 4.22795C17.9497 4.40623 18.2388 4.40623 18.417 4.22795L20.9995 1.64547L23.582 4.22795C23.7603 4.40623 24.0493 4.40623 24.2276 4.22795C24.4059 4.04966 24.4059 3.76061 24.2276 3.58233L21.3223 0.677042ZM21.456 8.3042V0.999851H20.543V8.3042H21.456Z" fill="white"/>
<path d="M20.6767 52.365C20.855 52.5432 21.144 52.5432 21.3223 52.365L24.2276 49.4597C24.4059 49.2814 24.4059 48.9923 24.2276 48.814C24.0493 48.6358 23.7603 48.6358 23.582 48.814L20.9995 51.3965L18.417 48.814C18.2388 48.6358 17.9497 48.6358 17.7714 48.814C17.5931 48.9923 17.5931 49.2814 17.7714 49.4597L20.6767 52.365ZM20.543 44.7378V52.0421H21.456V44.7378H20.543Z" fill="white"/>
<defs>
<radialGradient id="paint0_radial_0_2312" cx="0" cy="0" r="1" gradientUnits="userSpaceOnUse" gradientTransform="translate(11.9341 10.9053) rotate(63.117) scale(19.8274 153.105)">
<stop stop-color="#DF4DBF"/>
<stop offset="1" stop-color="#572EFF"/>
</radialGradient>
</defs>
</svg>
