<svg width="72" height="72" viewBox="0 0 72 72" fill="none" xmlns="http://www.w3.org/2000/svg">
<mask id="mask0_0_6096" style="mask-type:alpha" maskUnits="userSpaceOnUse" x="0" y="0" width="72" height="72">
<rect width="72" height="72" fill="#D9D9D9"/>
</mask>
<g mask="url(#mask0_0_6096)">
<rect x="17.0628" y="3.85499" width="37.8839" height="64.2839" rx="3.87097" fill="#1E1E1E" stroke="white" stroke-width="0.516129"/>
<rect x="20.5" y="8.5" width="31" height="55" rx="2.5" fill="#DF4DBF" fill-opacity="0.1" stroke="#DF4DBF" stroke-dasharray="2 2"/>
<path fill-rule="evenodd" clip-rule="evenodd" d="M31.9334 26.2373C31.0012 26.6223 30.275 27.3499 29.8891 28.2816C29.5017 29.2138 29.5017 30.241 29.8891 31.1741C29.975 31.3839 30.0791 31.5826 30.1967 31.7674C30.3239 31.9671 30.5932 32.0261 30.791 31.8984C30.9916 31.7707 31.0507 31.5043 30.9225 31.3037C30.8313 31.1607 30.7507 31.0075 30.6844 30.8448C30.3772 30.1027 30.3998 29.3045 30.6844 28.6152C30.9695 27.9235 31.5191 27.3399 32.2636 27.0317C32.9841 26.7346 33.7771 26.7336 34.4975 27.0327C35.2171 27.3317 35.7777 27.8923 36.0753 28.6119C36.1439 28.7775 36.1967 28.9469 36.2332 29.1154C36.2841 29.3477 36.5039 29.4946 36.7468 29.4447C36.9782 29.3947 37.1255 29.1653 37.0761 28.933C37.0281 28.7141 36.9594 28.4967 36.8721 28.2821C36.4852 27.3499 35.7594 26.6227 34.8278 26.2368C33.8927 25.8514 32.8665 25.8499 31.9334 26.2373ZM25.6564 28.584C25.4664 28.7266 25.427 28.9959 25.5681 29.1859C25.7121 29.377 25.9804 29.4159 26.1719 29.2743L26.5396 28.9997L25.0507 39.2645L24.7752 38.8954C24.6331 38.7043 24.3638 38.6654 24.1732 38.808C23.9822 38.9506 23.9433 39.2208 24.0859 39.4109L24.983 40.6114C25.1251 40.8019 25.3953 40.8398 25.5849 40.6987L26.7854 39.803C26.9755 39.6605 27.0148 39.3912 26.8727 39.2002C26.7297 39.0091 26.4599 38.9707 26.2699 39.1128L25.9022 39.3874L27.3911 29.1231L27.6667 29.4917C27.8092 29.6818 28.0795 29.7202 28.2686 29.5791C28.4601 29.436 28.499 29.1663 28.3559 28.9762L27.4588 27.7757C27.3177 27.5851 27.047 27.5463 26.8569 27.6883L25.6564 28.584ZM33.3959 37.908C32.5559 37.416 31.5767 37.2792 30.6388 37.5259C29.699 37.7707 28.9103 38.3669 28.4193 39.205C27.9273 40.043 27.7929 41.0213 28.0382 41.9611C28.2825 42.901 28.8782 43.6891 29.7163 44.1801C29.9054 44.291 30.1003 44.3822 30.2975 44.4557C30.5164 44.544 30.7689 44.4225 30.851 44.2027C30.9345 43.9814 30.8217 43.7333 30.598 43.6497C30.4468 43.5931 30.2971 43.5235 30.1521 43.4371C29.5132 43.0617 29.0572 42.4608 28.87 41.7442C28.6833 41.0266 28.7865 40.2802 29.1619 39.6408C29.5372 39.0005 30.1382 38.5454 30.8558 38.3582C31.5743 38.172 32.3198 38.2762 32.9591 38.6506C33.1075 38.7365 33.2428 38.8349 33.3681 38.9414C33.5505 39.0974 33.8217 39.0758 33.9758 38.8958C34.1308 38.7158 34.1092 38.4432 33.9287 38.2877C33.7655 38.148 33.5884 38.0198 33.3959 37.908ZM32.0606 30.108L37.0007 42.0408C35.5939 41.8368 33.6129 40.5725 33.3662 40.4136C33.1075 40.247 32.8319 40.1266 32.5574 40.0464C32.1964 39.9403 31.835 39.9029 31.5067 39.9197C31.006 39.9451 30.2913 40.0838 30.1905 40.6747C30.07 41.3866 30.9921 42.2424 31.5028 42.575C32.5046 43.2297 33.7857 44.6942 34.9339 45.5587C37.1716 47.2445 37.3996 46.6454 40.6708 48.6499L47.9999 45.6158C47.5948 43.9685 47.9625 41.509 47.505 39.6538L47.4503 39.4901L44.9423 33.3787C44.6697 32.7192 43.9041 32.4024 43.2455 32.676C42.5956 32.9443 42.2802 33.6912 42.5303 34.343L42.5284 34.3382L42.0623 33.2127C41.7892 32.5522 41.0246 32.2363 40.366 32.509C39.7113 32.7802 39.3945 33.5362 39.6561 34.1899L39.6542 34.1851L39.1838 33.0485C38.8962 32.3554 38.0937 32.0232 37.402 32.3103C36.7089 32.5963 36.3762 33.4003 36.6628 34.092L34.5801 29.0645C34.2935 28.3714 33.491 28.0392 32.7979 28.3267C32.1062 28.6128 31.7745 29.4173 32.0606 30.108Z" fill="white"/>
</g>
</svg>
