<svg width="108" height="44" viewBox="0 0 108 44" fill="none" xmlns="http://www.w3.org/2000/svg">
<rect x="0.696372" y="0.364341" width="106.419" height="42.5891" rx="5.46512" fill="black" fill-opacity="0.5"/>
<rect x="0.696372" y="0.364341" width="106.419" height="42.5891" rx="5.46512" fill="url(#paint0_radial_622_226)" fill-opacity="0.2" style="mix-blend-mode:hard-light"/>
<path d="M22.7428 24.7726C22.7428 25.3847 22.5922 25.9191 22.291 26.3757C21.9898 26.8324 21.5526 27.187 20.9794 27.4396C20.4159 27.6825 19.726 27.8039 18.9099 27.8039C18.5504 27.8039 18.1958 27.7797 17.846 27.7311C17.506 27.6825 17.1757 27.6145 16.855 27.527C16.5441 27.4299 16.2478 27.3133 15.966 27.1773V25.1224C16.4615 25.3361 16.9716 25.5353 17.4963 25.7199C18.0306 25.8948 18.5601 25.9822 19.0848 25.9822C19.4443 25.9822 19.7309 25.9337 19.9446 25.8365C20.1681 25.7393 20.3284 25.6082 20.4256 25.443C20.5324 25.2778 20.5859 25.0884 20.5859 24.8746C20.5859 24.6123 20.4936 24.3888 20.309 24.2042C20.1341 24.0197 19.8961 23.8496 19.5949 23.6942C19.2937 23.529 18.9488 23.3541 18.5601 23.1695C18.3173 23.0529 18.0549 22.9169 17.7732 22.7615C17.4914 22.5963 17.2194 22.3971 16.957 22.1639C16.7044 21.921 16.4955 21.6296 16.3304 21.2895C16.1652 20.9495 16.0826 20.5414 16.0826 20.0653C16.0826 19.4435 16.2235 18.914 16.5053 18.4768C16.7967 18.0299 17.2048 17.6898 17.7294 17.4567C18.2638 17.2235 18.8905 17.1069 19.6094 17.1069C20.1535 17.1069 20.6685 17.17 21.1543 17.2963C21.6498 17.4226 22.1647 17.6024 22.6991 17.8356L21.985 19.5553C21.5089 19.3609 21.0814 19.2103 20.7025 19.1035C20.3236 18.9966 19.9349 18.9432 19.5366 18.9432C19.2645 18.9432 19.0314 18.9869 18.837 19.0743C18.6427 19.1618 18.4921 19.2832 18.3853 19.4387C18.2881 19.5941 18.2395 19.7787 18.2395 19.9925C18.2395 20.2354 18.3124 20.4442 18.4581 20.6191C18.6039 20.7843 18.8225 20.9446 19.1139 21.1001C19.4054 21.2555 19.7698 21.4401 20.207 21.6539C20.7413 21.9065 21.1931 22.1688 21.5623 22.4408C21.9412 22.7129 22.2327 23.0335 22.4367 23.4027C22.6408 23.7719 22.7428 24.2285 22.7428 24.7726ZM28.5399 17.2526C29.8807 17.2526 30.8571 17.5441 31.4692 18.127C32.091 18.7003 32.4019 19.4921 32.4019 20.5025C32.4019 20.9592 32.3339 21.3964 32.1979 21.8142C32.0619 22.2222 31.8335 22.5914 31.5129 22.9218C31.202 23.2424 30.7891 23.495 30.2742 23.6796C29.7592 23.8642 29.1228 23.9565 28.365 23.9565H27.4177V27.6582H25.2171V17.2526H28.5399ZM28.4233 19.0598H27.4177V22.1494H28.1464C28.5642 22.1494 28.9237 22.0959 29.2249 21.9891C29.5261 21.8822 29.7592 21.7122 29.9244 21.479C30.0896 21.2458 30.1722 20.9446 30.1722 20.5754C30.1722 20.0605 30.0313 19.6816 29.7495 19.4387C29.4678 19.1861 29.0257 19.0598 28.4233 19.0598ZM40.5941 27.6582L39.8363 25.1807H36.0472L35.2893 27.6582H32.9138L36.5864 17.2089H39.2825L42.9696 27.6582H40.5941ZM38.5538 20.9106C38.5052 20.7454 38.4421 20.5365 38.3644 20.2839C38.2866 20.0313 38.2089 19.7739 38.1312 19.5115C38.0535 19.2492 37.9903 19.0209 37.9417 18.8266C37.8931 19.0209 37.8251 19.2638 37.7377 19.5553C37.66 19.837 37.5822 20.1091 37.5045 20.3714C37.4365 20.624 37.3831 20.8037 37.3442 20.9106L36.601 23.3298H39.3116L38.5538 20.9106ZM49.0016 18.9432C48.5839 18.9432 48.2098 19.0257 47.8795 19.1909C47.5588 19.3561 47.2868 19.5941 47.0633 19.905C46.8399 20.2062 46.6699 20.5754 46.5533 21.0126C46.4464 21.4498 46.393 21.9405 46.393 22.4846C46.393 23.223 46.4804 23.8545 46.6553 24.3791C46.8399 24.8941 47.1265 25.2876 47.5151 25.5596C47.9038 25.8316 48.3993 25.9677 49.0016 25.9677C49.4291 25.9677 49.8518 25.9191 50.2695 25.8219C50.697 25.7248 51.1585 25.5887 51.654 25.4139V27.2647C51.1974 27.4493 50.7456 27.5853 50.2987 27.6728C49.8518 27.7602 49.3514 27.8039 48.7976 27.8039C47.7289 27.8039 46.8447 27.5853 46.1452 27.1481C45.4554 26.7012 44.9453 26.0794 44.615 25.2827C44.2846 24.4763 44.1195 23.5387 44.1195 22.47C44.1195 21.683 44.2263 20.964 44.4401 20.3131C44.6538 19.6524 44.9647 19.084 45.3728 18.608C45.7906 18.1319 46.3007 17.7627 46.903 17.5004C47.5151 17.238 48.2147 17.1069 49.0016 17.1069C49.5166 17.1069 50.0315 17.1749 50.5464 17.3109C51.0711 17.4372 51.5715 17.6121 52.0475 17.8356L51.3334 19.6281C50.9448 19.4435 50.5513 19.2832 50.153 19.1472C49.7643 19.0112 49.3806 18.9432 49.0016 18.9432ZM60.4379 27.6582H54.4481V17.2526H60.4379V19.0598H56.6487V21.3478H60.1755V23.1549H56.6487V25.8365H60.4379V27.6582ZM66.4214 17.2526C67.3444 17.2526 68.1168 17.3401 68.7386 17.5149C69.3701 17.6801 69.8413 17.957 70.1522 18.3456C70.4728 18.7246 70.6331 19.2395 70.6331 19.8905C70.6331 20.2791 70.57 20.6337 70.4437 20.9543C70.3174 21.2749 70.1328 21.5373 69.8899 21.7413C69.6567 21.9453 69.3701 22.0765 69.03 22.1348V22.2077C69.3798 22.2757 69.6956 22.3971 69.9773 22.572C70.2591 22.7469 70.4825 22.9995 70.6477 23.3298C70.8129 23.6602 70.8955 24.0974 70.8955 24.6415C70.8955 25.273 70.74 25.8171 70.4291 26.2737C70.1279 26.7206 69.6907 27.0655 69.1175 27.3084C68.5442 27.5416 67.8641 27.6582 67.0772 27.6582H63.186V17.2526H66.4214ZM66.6691 21.377C67.3103 21.377 67.7524 21.2749 67.9953 21.0709C68.2479 20.8669 68.3742 20.5706 68.3742 20.1819C68.3742 19.7836 68.2285 19.497 67.937 19.3221C67.6455 19.1472 67.184 19.0598 66.5525 19.0598H65.3866V21.377H66.6691ZM65.3866 23.1258V25.8365H66.8294C67.4901 25.8365 67.9516 25.7102 68.2139 25.4576C68.4762 25.1953 68.6074 24.8503 68.6074 24.4229C68.6074 24.1605 68.5491 23.9322 68.4325 23.7379C68.3256 23.5436 68.1362 23.393 67.8641 23.2861C67.5921 23.1792 67.2229 23.1258 66.7565 23.1258H65.3866ZM79.9293 27.6582L79.1715 25.1807H75.3823L74.6245 27.6582H72.249L75.9215 17.2089H78.6177L82.3048 27.6582H79.9293ZM77.889 20.9106C77.8404 20.7454 77.7773 20.5365 77.6995 20.2839C77.6218 20.0313 77.5441 19.7739 77.4664 19.5115C77.3886 19.2492 77.3255 19.0209 77.2769 18.8266C77.2283 19.0209 77.1603 19.2638 77.0729 19.5553C76.9951 19.837 76.9174 20.1091 76.8397 20.3714C76.7717 20.624 76.7182 20.8037 76.6794 20.9106L75.9361 23.3298H78.6468L77.889 20.9106ZM87.237 17.2526C88.1794 17.2526 88.9566 17.3692 89.5687 17.6024C90.1808 17.8259 90.6375 18.1708 90.9387 18.6371C91.2399 19.0938 91.3904 19.6718 91.3904 20.3714C91.3904 20.8475 91.2981 21.2652 91.1135 21.6247C90.9387 21.9745 90.7006 22.2757 90.3994 22.5283C90.108 22.7712 89.7922 22.9703 89.4522 23.1258L92.5126 27.6582H90.0642L87.5867 23.665H86.4063V27.6582H84.2056V17.2526H87.237ZM87.0766 19.0598H86.4063V21.8725H87.1204C87.6062 21.8725 87.9996 21.819 88.3008 21.7122C88.602 21.6053 88.8206 21.445 88.9566 21.2312C89.0927 21.0078 89.1607 20.7406 89.1607 20.4297C89.1607 20.0993 89.083 19.837 88.9275 19.6427C88.7818 19.4387 88.5534 19.2929 88.2425 19.2055C87.9414 19.1083 87.5527 19.0598 87.0766 19.0598Z" fill="white"/>
<rect x="0.696372" y="0.364341" width="106.419" height="42.5891" rx="5.46512" stroke="url(#paint1_radial_622_226)" stroke-width="0.728682"/>
<defs>
<radialGradient id="paint0_radial_622_226" cx="0" cy="0" r="1" gradientUnits="userSpaceOnUse" gradientTransform="translate(15.0921 3.09413) rotate(25.1106) scale(94.7853 73.641)">
<stop stop-color="white"/>
<stop offset="1" stop-color="white" stop-opacity="0"/>
</radialGradient>
<radialGradient id="paint1_radial_622_226" cx="0" cy="0" r="1" gradientUnits="userSpaceOnUse" gradientTransform="translate(0.332026 1.98909) rotate(21.0926) scale(114.842 77.2047)">
<stop stop-color="white" stop-opacity="0.6"/>
<stop offset="0.5" stop-color="white" stop-opacity="0.3"/>
<stop offset="1" stop-color="white" stop-opacity="0.6"/>
</radialGradient>
</defs>
</svg>
