<svg width="72" height="72" viewBox="0 0 72 72" fill="none" xmlns="http://www.w3.org/2000/svg">
<mask id="mask0_309_5" style="mask-type:alpha" maskUnits="userSpaceOnUse" x="0" y="0" width="72" height="72">
<rect width="72" height="72" fill="#D9D9D9"/>
</mask>
<g mask="url(#mask0_309_5)">
<rect x="17.0628" y="3.85499" width="37.8839" height="64.2839" rx="3.87097" fill="#1E1E1E" stroke="white" stroke-width="0.516129"/>
</g>
<path d="M40.9668 40V38H43.9668V35H45.9668V38.5C45.9668 38.89 45.8068 39.24 45.5068 39.54C45.2068 39.84 44.8568 40 44.4668 40H40.9668ZM30.9668 40H27.4668C27.0768 40 26.7268 39.84 26.4268 39.54C26.1268 39.24 25.9668 38.89 25.9668 38.5V35H27.9668V38H30.9668V40ZM40.9668 20H44.4668C44.8568 20 45.2068 20.16 45.5068 20.46C45.8068 20.76 45.9668 21.11 45.9668 21.5V25H43.9668V22H40.9668V20ZM30.9668 20V22H27.9668V25H25.9668V21.5C25.9668 21.11 26.1268 20.76 26.4268 20.46C26.7268 20.16 27.0768 20 27.4668 20H30.9668ZM36.9668 35.25L40.9668 32.95V28.36L36.9668 30.66V35.25ZM35.9668 28.92L39.9668 26.63L35.9668 24.28L31.9668 26.63L35.9668 28.92ZM30.9668 32.95L34.9668 35.25V30.66L30.9668 28.36V32.95ZM42.1968 25.59C42.6968 25.91 42.9668 26.34 42.9668 26.91V33.23C42.9668 33.8 42.6968 34.23 42.1968 34.55L36.7168 37.73C36.2168 38.05 35.7168 38.05 35.2168 37.73L29.7368 34.55C29.2368 34.23 28.9668 33.8 28.9668 33.23V26.91C28.9668 26.34 29.2368 25.91 29.7368 25.59L35.2168 22.41C35.4668 22.28 35.7168 22.22 35.9668 22.22C36.2168 22.22 36.4668 22.28 36.7168 22.41L42.1968 25.59Z" fill="#DF4DBF"/>
<path d="M38.5554 42.276L38.4765 46.3459L38.9089 46.3543L38.9624 43.596C38.9741 42.9909 39.4749 42.5097 40.0795 42.5214C40.6845 42.5331 41.1658 43.0339 41.154 43.6385L41.0786 47.5293L41.5185 47.5378L41.5638 45.2046C41.5755 44.5998 42.0763 44.1183 42.6808 44.1301C43.2857 44.1418 43.7671 44.6426 43.7491 45.5752L43.619 52.2856C43.5624 55.1378 40.6664 57.9251 37.1563 57.858C33.6473 57.789 30.8617 54.8927 30.9273 51.3827L30.92 51.3825L31.0632 44.3751C31.0813 43.4415 31.0905 43.2794 31.6958 43.2911C32.7559 43.3117 33.25 44.2898 33.2383 44.8946L33.1805 47.8766L33.6204 47.8851L33.8073 38.2452C33.819 37.6402 34.3198 37.1589 34.9244 37.1706C35.5297 37.1824 36.0107 37.6831 35.999 38.2877L35.8437 46.2943L36.2836 46.3029L36.3626 42.233C36.374 41.6285 36.8748 41.1467 37.4802 41.1587C38.0857 41.1707 38.5671 41.6715 38.5554 42.276Z" fill="white"/>
<path d="M32.4016 38.2326C32.3897 38.9975 32.7837 39.6663 33.3506 40.242L33.3892 38.2517C33.3908 37.4178 34.0938 36.7429 34.9341 36.7582C35.7743 36.7752 36.4579 37.4772 36.4274 38.3106L36.3888 40.3009C36.9774 39.7479 37.3902 39.0942 37.4075 38.3296C37.4197 37.0212 36.3562 35.7978 34.9532 35.7706C33.5502 35.7434 32.4404 36.9247 32.4016 38.2326Z" fill="white"/>
</svg>
