<svg width="19" height="19" viewBox="0 0 19 19" fill="none" xmlns="http://www.w3.org/2000/svg">
<path d="M3.5 3.5H5.75L7.25 2H11.75L13.25 3.5H15.5C15.8978 3.5 16.2794 3.65804 16.5607 3.93934C16.842 4.22064 17 4.60218 17 5V14C17 14.3978 16.842 14.7794 16.5607 15.0607C16.2794 15.342 15.8978 15.5 15.5 15.5H3.5C3.10218 15.5 2.72064 15.342 2.43934 15.0607C2.15804 14.7794 2 14.3978 2 14V5C2 4.60218 2.15804 4.22064 2.43934 3.93934C2.72064 3.65804 3.10218 3.5 3.5 3.5ZM9.5 5.75C8.50544 5.75 7.55161 6.14509 6.84835 6.84835C6.14509 7.55161 5.75 8.50544 5.75 9.5C5.75 10.4946 6.14509 11.4484 6.84835 12.1517C7.55161 12.8549 8.50544 13.25 9.5 13.25C10.4946 13.25 11.4484 12.8549 12.1517 12.1517C12.8549 11.4484 13.25 10.4946 13.25 9.5C13.25 8.50544 12.8549 7.55161 12.1517 6.84835C11.4484 6.14509 10.4946 5.75 9.5 5.75ZM9.5 7.25C10.0967 7.25 10.669 7.48705 11.091 7.90901C11.5129 8.33097 11.75 8.90326 11.75 9.5C11.75 10.0967 11.5129 10.669 11.091 11.091C10.669 11.5129 10.0967 11.75 9.5 11.75C8.90326 11.75 8.33097 11.5129 7.90901 11.091C7.48705 10.669 7.25 10.0967 7.25 9.5C7.25 8.90326 7.48705 8.33097 7.90901 7.90901C8.33097 7.48705 8.90326 7.25 9.5 7.25Z" fill="#C599FF"/>
</svg>
