<svg width="74" height="66" viewBox="0 0 74 66" fill="none" xmlns="http://www.w3.org/2000/svg">
<g clip-path="url(#clip0_0_2221)">
<mask id="path-1-inside-1_0_2221" fill="white">
<path fill-rule="evenodd" clip-rule="evenodd" d="M31.9975 6.06345C31.8656 5.44745 32.2539 4.83878 32.8767 4.70678C33.7193 4.52345 34.4666 4.09812 35.0601 3.51145C35.6462 2.92478 36.0638 2.17678 36.247 1.34078C36.3349 0.908115 36.6719 0.548782 37.1262 0.453448C37.749 0.321448 38.3571 0.710115 38.4816 1.33345C38.6648 2.17678 39.0898 2.92478 39.6759 3.51145C40.262 4.09812 41.0094 4.52345 41.8446 4.70678C42.2769 4.79478 42.6359 5.13212 42.7385 5.58678C42.8704 6.20278 42.482 6.81145 41.8593 6.94345C41.0167 7.12678 40.262 7.55212 39.6759 8.13878C39.0898 8.72545 38.6721 9.47345 38.4816 10.3094C38.3937 10.7421 38.0567 11.1014 37.6024 11.1968C36.987 11.3288 36.3789 10.9401 36.247 10.3168C36.0638 9.47345 35.6462 8.72545 35.0527 8.13878C34.4666 7.55212 33.7193 7.12678 32.884 6.94345C32.4591 6.85545 32.0927 6.52545 31.9975 6.06345ZM73.9723 52.4835C73.8771 52.0215 73.5107 51.6915 73.0858 51.6035C72.2505 51.4201 71.5032 50.9948 70.9171 50.4081C70.3309 49.8214 69.906 49.0661 69.7228 48.2228C69.5909 47.6068 68.9828 47.2181 68.3674 47.3428C67.9058 47.4454 67.5761 47.8048 67.4882 48.2374C67.305 49.0734 66.8874 49.8214 66.2939 50.4081C65.7078 50.9948 64.9531 51.4201 64.1179 51.6035C63.4951 51.7355 63.1068 52.3441 63.2387 52.9601C63.3339 53.4221 63.7002 53.7521 64.1252 53.8401C64.9604 54.0235 65.7078 54.4415 66.2939 55.0355C66.8801 55.6221 67.305 56.3774 67.4882 57.2135C67.6201 57.8294 68.2282 58.2255 68.8436 58.0935C69.3052 57.9981 69.6349 57.6315 69.7228 57.2061C69.906 56.3701 70.3236 55.6221 70.9171 55.0355C71.5032 54.4415 72.2579 54.0235 73.0931 53.8401C73.7232 53.7081 74.1115 53.0994 73.9723 52.4835ZM10.6108 51.6035C9.7755 51.4201 9.02818 50.9948 8.44204 50.4081C7.84857 49.8214 7.43095 49.0661 7.24778 48.2228C7.1159 47.6068 6.50778 47.2181 5.89234 47.3428C5.43075 47.4454 5.09372 47.8048 5.01313 48.2374C4.82996 49.0734 4.40501 49.8214 3.81887 50.4081C3.23273 50.9948 2.47808 51.4201 1.6355 51.6035C1.02006 51.7355 0.631742 52.3441 0.756297 52.9601C0.858871 53.4221 1.21788 53.7521 1.65016 53.8401C2.48541 54.0235 3.23273 54.4415 3.81887 55.0355C4.40501 55.6221 4.82996 56.3774 5.01313 57.2135C5.14501 57.8294 5.75313 58.2255 6.36857 58.0935C6.83016 57.9981 7.15986 57.6315 7.24778 57.2061C7.43095 56.3701 7.84857 55.6221 8.44204 55.0355C8.45669 55.0135 8.47135 54.9988 8.49333 54.9768C9.07214 54.4195 9.80481 54.0161 10.6254 53.8328C11.2409 53.7008 11.6365 53.0921 11.5046 52.4761C11.402 52.0214 11.043 51.6915 10.6108 51.6035ZM24.5828 34.8908C24.5242 34.7148 24.363 34.5975 24.1725 34.5975H8.61788C8.55927 34.5975 8.51531 34.6268 8.486 34.6855C8.46402 34.7368 8.47134 34.7955 8.50798 34.8395L34.005 63.9161C34.0563 63.9675 34.1296 63.9821 34.1882 63.9454C34.2468 63.9088 34.2761 63.8428 34.2541 63.7768L24.5828 34.8908ZM47.6034 34.7808C47.5155 34.6708 47.3983 34.6048 47.2517 34.6048H27.4842C27.345 34.6048 27.2205 34.6708 27.1325 34.7808C27.0519 34.8981 27.03 35.0301 27.0739 35.1695L37.2214 65.4781C37.2654 65.6101 37.4559 65.6101 37.4925 65.4781L47.6474 35.1695C47.6987 35.0301 47.684 34.8981 47.6034 34.7808ZM66.25 34.6855C66.228 34.6341 66.1767 34.5975 66.1181 34.5975H50.5634C50.3729 34.5975 50.2117 34.7075 50.1531 34.8908L40.4818 63.7768C40.4599 63.8428 40.4892 63.9088 40.5478 63.9454C40.6064 63.9748 40.6797 63.9675 40.7236 63.9161L66.2206 34.8395C66.2646 34.7955 66.2719 34.7368 66.25 34.6855ZM51.5599 32.1115C51.6405 32.2435 51.7723 32.3168 51.9262 32.3168H66.3379C66.3965 32.3168 66.4404 32.2875 66.4698 32.2361C66.4917 32.1848 66.4844 32.1335 66.4551 32.0895L57.2674 20.1508C57.2381 20.1068 57.1868 20.0921 57.1355 20.0994C57.0842 20.1068 57.0476 20.1288 57.0183 20.1801L51.5305 31.6935C51.4719 31.8328 51.4793 31.9795 51.5599 32.1115ZM39.8591 19.0215C39.8371 19.0728 39.8371 19.1314 39.8737 19.1681L48.7757 30.7255C48.8709 30.8501 49.0102 30.9088 49.164 30.8941C49.3105 30.8795 49.4424 30.7915 49.5084 30.6521L54.9814 19.1461C55.0034 19.1021 55.0034 19.0508 54.9741 19.0068C54.9521 18.9628 54.9082 18.9408 54.8496 18.9408H39.9836C39.9323 18.9408 39.881 18.9701 39.8591 19.0215ZM37.368 19.7548C37.324 19.7548 37.2801 19.7694 37.2507 19.8061L28.1583 31.6128C28.0557 31.7448 28.041 31.9135 28.1143 32.0675C28.1876 32.2141 28.3341 32.3095 28.5026 32.3095H46.2333C46.4018 32.3095 46.5484 32.2215 46.6216 32.0675C46.6949 31.9135 46.6803 31.7448 46.5777 31.6128L37.4852 19.8061C37.4559 19.7768 37.4119 19.7548 37.368 19.7548ZM25.2349 30.6521C25.3008 30.7915 25.4254 30.8795 25.5793 30.8941C25.7331 30.9088 25.8723 30.8501 25.9676 30.7255L34.8696 19.1681C34.9062 19.1241 34.9135 19.0728 34.8842 19.0215C34.8622 18.9701 34.8109 18.9408 34.7523 18.9408H19.8864C19.8351 18.9408 19.7911 18.9628 19.7618 19.0068C19.7399 19.0508 19.7325 19.1021 19.7545 19.1461L25.2349 30.6521ZM8.39808 32.3095H22.8098C22.9563 32.3095 23.0882 32.2361 23.1688 32.1041C23.2494 31.9795 23.264 31.8255 23.1908 31.6935L17.7104 20.1801C17.6884 20.1288 17.6444 20.0994 17.5931 20.0994C17.5418 20.0921 17.4979 20.1141 17.4612 20.1508L8.28085 32.0821C8.24422 32.1261 8.23689 32.1848 8.2662 32.2288C8.2955 32.2801 8.33946 32.3095 8.39808 32.3095Z"/>
</mask>
<path fill-rule="evenodd" clip-rule="evenodd" d="M31.9975 6.06345C31.8656 5.44745 32.2539 4.83878 32.8767 4.70678C33.7193 4.52345 34.4666 4.09812 35.0601 3.51145C35.6462 2.92478 36.0638 2.17678 36.247 1.34078C36.3349 0.908115 36.6719 0.548782 37.1262 0.453448C37.749 0.321448 38.3571 0.710115 38.4816 1.33345C38.6648 2.17678 39.0898 2.92478 39.6759 3.51145C40.262 4.09812 41.0094 4.52345 41.8446 4.70678C42.2769 4.79478 42.6359 5.13212 42.7385 5.58678C42.8704 6.20278 42.482 6.81145 41.8593 6.94345C41.0167 7.12678 40.262 7.55212 39.6759 8.13878C39.0898 8.72545 38.6721 9.47345 38.4816 10.3094C38.3937 10.7421 38.0567 11.1014 37.6024 11.1968C36.987 11.3288 36.3789 10.9401 36.247 10.3168C36.0638 9.47345 35.6462 8.72545 35.0527 8.13878C34.4666 7.55212 33.7193 7.12678 32.884 6.94345C32.4591 6.85545 32.0927 6.52545 31.9975 6.06345ZM73.9723 52.4835C73.8771 52.0215 73.5107 51.6915 73.0858 51.6035C72.2505 51.4201 71.5032 50.9948 70.9171 50.4081C70.3309 49.8214 69.906 49.0661 69.7228 48.2228C69.5909 47.6068 68.9828 47.2181 68.3674 47.3428C67.9058 47.4454 67.5761 47.8048 67.4882 48.2374C67.305 49.0734 66.8874 49.8214 66.2939 50.4081C65.7078 50.9948 64.9531 51.4201 64.1179 51.6035C63.4951 51.7355 63.1068 52.3441 63.2387 52.9601C63.3339 53.4221 63.7002 53.7521 64.1252 53.8401C64.9604 54.0235 65.7078 54.4415 66.2939 55.0355C66.8801 55.6221 67.305 56.3774 67.4882 57.2135C67.6201 57.8294 68.2282 58.2255 68.8436 58.0935C69.3052 57.9981 69.6349 57.6315 69.7228 57.2061C69.906 56.3701 70.3236 55.6221 70.9171 55.0355C71.5032 54.4415 72.2579 54.0235 73.0931 53.8401C73.7232 53.7081 74.1115 53.0994 73.9723 52.4835ZM10.6108 51.6035C9.7755 51.4201 9.02818 50.9948 8.44204 50.4081C7.84857 49.8214 7.43095 49.0661 7.24778 48.2228C7.1159 47.6068 6.50778 47.2181 5.89234 47.3428C5.43075 47.4454 5.09372 47.8048 5.01313 48.2374C4.82996 49.0734 4.40501 49.8214 3.81887 50.4081C3.23273 50.9948 2.47808 51.4201 1.6355 51.6035C1.02006 51.7355 0.631742 52.3441 0.756297 52.9601C0.858871 53.4221 1.21788 53.7521 1.65016 53.8401C2.48541 54.0235 3.23273 54.4415 3.81887 55.0355C4.40501 55.6221 4.82996 56.3774 5.01313 57.2135C5.14501 57.8294 5.75313 58.2255 6.36857 58.0935C6.83016 57.9981 7.15986 57.6315 7.24778 57.2061C7.43095 56.3701 7.84857 55.6221 8.44204 55.0355C8.45669 55.0135 8.47135 54.9988 8.49333 54.9768C9.07214 54.4195 9.80481 54.0161 10.6254 53.8328C11.2409 53.7008 11.6365 53.0921 11.5046 52.4761C11.402 52.0214 11.043 51.6915 10.6108 51.6035ZM24.5828 34.8908C24.5242 34.7148 24.363 34.5975 24.1725 34.5975H8.61788C8.55927 34.5975 8.51531 34.6268 8.486 34.6855C8.46402 34.7368 8.47134 34.7955 8.50798 34.8395L34.005 63.9161C34.0563 63.9675 34.1296 63.9821 34.1882 63.9454C34.2468 63.9088 34.2761 63.8428 34.2541 63.7768L24.5828 34.8908ZM47.6034 34.7808C47.5155 34.6708 47.3983 34.6048 47.2517 34.6048H27.4842C27.345 34.6048 27.2205 34.6708 27.1325 34.7808C27.0519 34.8981 27.03 35.0301 27.0739 35.1695L37.2214 65.4781C37.2654 65.6101 37.4559 65.6101 37.4925 65.4781L47.6474 35.1695C47.6987 35.0301 47.684 34.8981 47.6034 34.7808ZM66.25 34.6855C66.228 34.6341 66.1767 34.5975 66.1181 34.5975H50.5634C50.3729 34.5975 50.2117 34.7075 50.1531 34.8908L40.4818 63.7768C40.4599 63.8428 40.4892 63.9088 40.5478 63.9454C40.6064 63.9748 40.6797 63.9675 40.7236 63.9161L66.2206 34.8395C66.2646 34.7955 66.2719 34.7368 66.25 34.6855ZM51.5599 32.1115C51.6405 32.2435 51.7723 32.3168 51.9262 32.3168H66.3379C66.3965 32.3168 66.4404 32.2875 66.4698 32.2361C66.4917 32.1848 66.4844 32.1335 66.4551 32.0895L57.2674 20.1508C57.2381 20.1068 57.1868 20.0921 57.1355 20.0994C57.0842 20.1068 57.0476 20.1288 57.0183 20.1801L51.5305 31.6935C51.4719 31.8328 51.4793 31.9795 51.5599 32.1115ZM39.8591 19.0215C39.8371 19.0728 39.8371 19.1314 39.8737 19.1681L48.7757 30.7255C48.8709 30.8501 49.0102 30.9088 49.164 30.8941C49.3105 30.8795 49.4424 30.7915 49.5084 30.6521L54.9814 19.1461C55.0034 19.1021 55.0034 19.0508 54.9741 19.0068C54.9521 18.9628 54.9082 18.9408 54.8496 18.9408H39.9836C39.9323 18.9408 39.881 18.9701 39.8591 19.0215ZM37.368 19.7548C37.324 19.7548 37.2801 19.7694 37.2507 19.8061L28.1583 31.6128C28.0557 31.7448 28.041 31.9135 28.1143 32.0675C28.1876 32.2141 28.3341 32.3095 28.5026 32.3095H46.2333C46.4018 32.3095 46.5484 32.2215 46.6216 32.0675C46.6949 31.9135 46.6803 31.7448 46.5777 31.6128L37.4852 19.8061C37.4559 19.7768 37.4119 19.7548 37.368 19.7548ZM25.2349 30.6521C25.3008 30.7915 25.4254 30.8795 25.5793 30.8941C25.7331 30.9088 25.8723 30.8501 25.9676 30.7255L34.8696 19.1681C34.9062 19.1241 34.9135 19.0728 34.8842 19.0215C34.8622 18.9701 34.8109 18.9408 34.7523 18.9408H19.8864C19.8351 18.9408 19.7911 18.9628 19.7618 19.0068C19.7399 19.0508 19.7325 19.1021 19.7545 19.1461L25.2349 30.6521ZM8.39808 32.3095H22.8098C22.9563 32.3095 23.0882 32.2361 23.1688 32.1041C23.2494 31.9795 23.264 31.8255 23.1908 31.6935L17.7104 20.1801C17.6884 20.1288 17.6444 20.0994 17.5931 20.0994C17.5418 20.0921 17.4979 20.1141 17.4612 20.1508L8.28085 32.0821C8.24422 32.1261 8.23689 32.1848 8.2662 32.2288C8.2955 32.2801 8.33946 32.3095 8.39808 32.3095Z" stroke="white" stroke-width="3" mask="url(#path-1-inside-1_0_2221)"/>
</g>
<defs>
<clipPath id="clip0_0_2221">
<rect width="74" height="66" fill="white"/>
</clipPath>
</defs>
</svg>
