<svg width="18" height="19" viewBox="0 0 18 19" fill="none" xmlns="http://www.w3.org/2000/svg">
<mask id="mask0_0_754" style="mask-type:alpha" maskUnits="userSpaceOnUse" x="0" y="0" width="18" height="19">
<rect y="0.728516" width="18" height="18" fill="#D9D9D9"/>
</mask>
<g mask="url(#mask0_0_754)">
<path d="M14.2895 9.97188V8.41931L14.524 8.6582C14.607 8.74188 14.72 8.78898 14.8379 8.78898C14.956 8.78898 15.069 8.74188 15.1521 8.6582L16.4039 7.40641C16.4877 7.32333 16.5348 7.21017 16.5348 7.09228C16.5348 6.97439 16.4877 6.86124 16.4039 6.77815L13.2765 3.65079L13.2766 3.65094C13.1936 3.56712 13.0804 3.52002 12.9625 3.52002C12.8446 3.52002 12.7315 3.56712 12.6484 3.65094L9.52103 6.7783L9.52118 6.77815C9.43735 6.86124 9.39025 6.97439 9.39025 7.09228C9.39025 7.21017 9.43735 7.32333 9.52118 7.40641L10.773 8.6582C10.8565 8.74099 10.9695 8.7872 11.0871 8.78646C11.2041 8.78483 11.3164 8.73907 11.4011 8.6582L11.6355 8.41931V9.97188C10.4453 10.3927 9.52535 11.353 9.15583 12.56C8.78631 13.7671 9.01128 15.0779 9.76201 16.0928C10.5126 17.1077 11.7002 17.7064 12.9625 17.7064C14.2248 17.7064 15.4125 17.1077 16.1631 16.0928C16.9138 15.0779 17.1388 13.7671 16.7693 12.56C16.3997 11.353 15.4797 10.3927 14.2896 9.97188H14.2895ZM11.6355 13.7274C11.6355 13.3755 11.7753 13.0379 12.0241 12.789C12.2731 12.5402 12.6106 12.4004 12.9625 12.4004C13.3144 12.4004 13.6519 12.5402 13.9009 12.789C14.1497 13.0379 14.2895 13.3755 14.2895 13.7274C14.2895 14.0793 14.1497 14.4168 13.9009 14.6658C13.6519 14.9146 13.3144 15.0544 12.9625 15.0544C12.6106 15.0544 12.273 14.9146 12.0241 14.6658C11.7753 14.4168 11.6355 14.0793 11.6355 13.7274Z" fill="white"/>
<path d="M7.65759 11.0703H6.33057V9.51769C7.52075 9.09691 8.44075 8.13661 8.81027 6.92955C9.17979 5.7225 8.95482 4.41164 8.20409 3.39681C7.45349 2.38184 6.26585 1.7832 5.00356 1.7832C3.74126 1.7832 2.55362 2.38184 1.80303 3.39681C1.05228 4.41164 0.827331 5.7225 1.19685 6.92955C1.56637 8.13661 2.4864 9.09691 3.67654 9.51769V11.0703H2.34953C2.10531 11.0703 1.90714 11.2683 1.90714 11.5126V13.282V13.2819C1.90714 13.3992 1.9538 13.5118 2.03673 13.5947C2.11967 13.6776 2.23223 13.7243 2.34953 13.7243H3.67654V15.0513C3.67654 15.1686 3.7232 15.2812 3.80614 15.3641C3.88908 15.447 4.00163 15.4937 4.11893 15.4937H5.88834H5.88819C6.00549 15.4937 6.11805 15.447 6.20098 15.3641C6.28392 15.2812 6.33058 15.1686 6.33058 15.0513V13.7243H7.65759C7.77489 13.7243 7.88745 13.6776 7.97039 13.5947C8.05333 13.5118 8.09998 13.3992 8.09998 13.2819V11.5126C8.09998 11.3953 8.05333 11.2828 7.97039 11.1999C7.88745 11.1169 7.77489 11.0703 7.65759 11.0703ZM3.67654 5.7622C3.67654 5.4103 3.81635 5.07276 4.06517 4.82381C4.31413 4.57499 4.65167 4.43518 5.00356 4.43518C5.35544 4.43518 5.693 4.57499 5.94195 4.82381C6.19076 5.07277 6.33057 5.41031 6.33057 5.7622C6.33057 6.11408 6.19076 6.45164 5.94195 6.70059C5.69298 6.9494 5.35544 7.08921 5.00356 7.08921C4.65167 7.08921 4.31412 6.9494 4.06517 6.70059C3.81635 6.45162 3.67654 6.11408 3.67654 5.7622Z" fill="white"/>
</g>
</svg>
