<svg width="21" height="21" viewBox="0 0 21 21" fill="none" xmlns="http://www.w3.org/2000/svg">
<mask id="mask0_0_699" style="mask-type:alpha" maskUnits="userSpaceOnUse" x="0" y="0" width="21" height="21">
<rect x="0.496094" y="0.957031" width="20" height="20" fill="white"/>
</mask>
<g mask="url(#mask0_0_699)">
<path d="M17.9151 5.99978C17.6113 5.87823 17.287 5.89844 17.0034 6.04034C16.7197 6.18225 16.517 6.40499 16.436 6.709L15.6458 10.9641C15.6458 10.9843 15.6256 10.9843 15.6256 10.9843L15.2406 10.8222L15.2204 10.802L15.7471 4.58144C15.7877 3.91278 15.2811 3.34544 14.6125 3.28465C14.268 3.24409 13.9438 3.34543 13.6803 3.56832C13.4169 3.79121 13.2548 4.0951 13.2346 4.41933L12.6672 9.52544C12.6672 9.54565 12.647 9.54565 12.647 9.54565L12.262 9.48487L12.2418 9.46466L12.4647 3.20361C12.4445 2.51472 11.8771 1.98779 11.1881 1.98779H11.1476C10.4587 1.98779 9.89132 2.55514 9.89132 3.22379L9.48611 9.38354C9.48611 9.40375 9.48611 9.40375 9.4659 9.40375L9.04032 9.42396C9.02011 9.42396 9.02011 9.42396 9.02011 9.40375L8.8782 4.43948V4.37871C8.83764 4.05448 8.67552 3.7708 8.41221 3.56829C8.14875 3.36561 7.82467 3.26441 7.48007 3.30483L7.33816 3.32504C6.66951 3.40603 6.16295 4.01393 6.2237 4.68262L6.28448 12.4431L5.96025 12.5241L4.80537 9.58622V9.56601C4.58247 9.12024 4.13671 8.83657 3.63015 8.83657C3.20457 8.83657 2.77913 9.03925 2.51569 9.44447C2.31301 9.7687 2.27258 10.1537 2.35357 10.5386C2.55625 11.3288 2.8399 12.3825 3.08301 13.2335V13.274C3.22492 13.8008 3.54901 14.6114 3.65036 14.8343C4.62291 16.8807 5.31194 17.448 6.56817 18.5625C7.74338 19.5959 9.30366 19.9201 10.803 19.9201C11.4919 19.9201 12.1606 19.8188 12.809 19.6162C14.9366 18.9678 16.5575 17.3872 17.4288 15.1585C18.0975 13.4159 18.5635 8.00591 18.6243 7.31699C18.7459 6.7495 18.4419 6.20253 17.9151 5.99987L17.9151 5.99978Z" fill="white"/>
</g>
</svg>
